USFL
nRows=299
nColumns=2
inDegrees=yes
endheader
time	tib_ant_r	
2.0291	 46.151789	
2.06237	 46.127282	
2.09563	 46.142880	
2.1289	 46.129559	
2.16216	 46.132817	
2.19542	 46.141816	
2.22869	 46.134150	
2.26195	 46.118829	
2.29522	 46.107849	
2.32848	 46.076015	
2.36174	 46.043824	
2.39501	 46.010589	
2.42827	 45.996011	
2.46154	 45.994620	
2.4948	 45.985607	
2.52806	 45.983300	
2.56133	 45.992170	
2.59459	 45.974240	
2.62786	 45.961448	
2.66112	 45.967528	
2.69438	 45.968232	
2.72765	 45.917033	
2.76091	 45.884406	
2.79418	 45.882045	
2.82744	 45.904825	
2.8607	 45.890533	
2.89397	 45.895671	
2.92723	 45.901511	
2.9605	 45.898841	
2.99376	 45.909890	
3.02702	 45.911395	
3.06029	 45.870653	
3.09355	 45.904406	
3.12682	 45.902568	
3.16008	 45.884376	
3.19334	 45.900556	
3.22661	 45.894662	
3.25987	 45.905909	
3.29314	 45.917785	
3.3264	 45.893698	
3.35966	 45.890505	
3.39293	 45.880155	
3.42619	 45.852439	
3.45946	 45.851118	
3.49272	 45.862321	
3.52598	 45.875427	
3.55925	 45.882112	
3.59251	 45.855899	
3.62578	 45.833147	
3.65904	 45.829004	
3.6923	 45.832798	
3.72557	 45.816663	
3.75883	 45.815409	
3.7921	 45.816689	
3.82536	 45.800836	
3.85862	 45.805294	
3.89189	 45.810376	
3.92515	 45.808940	
3.95842	 45.801013	
3.99168	 45.803794	
4.02494	 45.795640	
4.05821	 45.796964	
4.09147	 45.798812	
4.12474	 45.813419	
4.158	 45.801854	
4.19126	 45.813208	
4.22453	 45.798236	
4.25779	 45.790524	
4.29106	 45.788759	
4.32432	 45.785866	
4.35758	 45.782766	
4.39085	 45.765379	
4.42411	 45.749978	
4.45738	 45.737452	
4.49064	 45.750872	
4.5239	 45.713935	
4.55717	 45.775713	
4.59043	 45.764186	
4.6237	 45.748107	
4.65696	 45.735117	
4.69022	 45.673772	
4.72349	 45.676312	
4.75675	 45.717194	
4.79002	 45.716479	
4.82328	 45.694440	
4.85654	 45.716636	
4.88981	 45.664381	
4.92307	 45.614089	
4.95634	 45.569620	
4.9896	 45.559510	
5.02286	 45.521628	
5.05613	 45.497380	
5.08939	 45.308212	
5.12266	 45.222787	
5.15592	 45.079685	
5.18918	 44.847044	
5.22245	 44.774548	
5.25571	 44.680235	
5.28898	 44.373263	
5.32224	 44.180140	
5.3555	 43.995617	
5.38877	 43.881249	
5.42203	 43.803020	
5.4553	 43.583864	
5.48856	 43.548889	
5.52182	 43.425386	
5.55509	 43.345645	
5.58835	 43.165992	
5.62162	 43.145951	
5.65488	 43.238821	
5.68814	 43.154943	
5.72141	 43.205497	
5.75467	 43.122845	
5.78794	 43.036418	
5.8212	 42.893745	
5.85446	 42.929043	
5.88773	 42.842599	
5.92099	 42.714376	
5.95426	 42.707244	
5.98752	 42.605861	
6.02078	 42.568989	
6.05405	 42.458195	
6.08731	 42.407821	
6.12058	 42.360287	
6.15384	 42.334824	
6.1871	 42.215389	
6.22037	 42.154061	
6.25363	 42.139580	
6.2869	 42.152215	
6.32016	 42.154524	
6.35342	 42.184324	
6.38669	 42.204394	
6.41995	 42.206557	
6.45322	 42.199335	
6.48648	 42.174888	
6.51974	 42.213886	
6.55301	 42.259261	
6.58627	 42.298562	
6.61954	 42.341880	
6.6528	 42.350015	
6.68606	 42.332931	
6.71933	 42.397173	
6.75259	 42.468276	
6.78586	 42.521159	
6.81912	 42.612156	
6.85238	 42.662509	
6.88565	 42.678491	
6.91891	 42.708760	
6.95218	 42.679663	
6.98544	 42.670347	
7.0187	 42.642493	
7.05197	 42.623392	
7.08523	 42.584911	
7.1185	 42.490634	
7.15176	 42.491704	
7.18502	 42.461766	
7.21829	 42.451515	
7.25155	 42.428208	
7.28482	 42.418144	
7.31808	 42.391240	
7.35134	 42.379610	
7.38461	 42.379867	
7.41787	 42.365737	
7.45114	 42.386603	
7.4844	 42.441805	
7.51766	 42.411753	
7.55093	 42.383733	
7.58419	 42.346611	
7.61746	 42.313764	
7.65072	 42.164977	
7.68398	 42.001404	
7.71725	 41.973836	
7.75051	 41.909151	
7.78378	 41.782997	
7.81704	 41.605004	
7.8503	 41.530708	
7.88357	 41.531636	
7.91683	 41.475878	
7.9501	 41.346124	
7.98336	 41.357506	
8.01662	 41.373076	
8.04989	 41.371311	
8.08315	 41.371921	
8.11642	 41.354536	
8.14968	 41.281062	
8.18294	 41.241396	
8.21621	 41.241273	
8.24947	 41.249389	
8.28274	 41.281653	
8.316	 41.224338	
8.34926	 41.240598	
8.38253	 41.255506	
8.41579	 41.197501	
8.44906	 41.155892	
8.48232	 41.041641	
8.51558	 41.002405	
8.54885	 40.926083	
8.58211	 40.918816	
8.61538	 40.870623	
8.64864	 40.819504	
8.6819	 40.818281	
8.71517	 40.794073	
8.74843	 40.795765	
8.7817	 40.782888	
8.81496	 40.758099	
8.84822	 40.773523	
8.88149	 40.733438	
8.91475	 40.714202	
8.94802	 40.724658	
8.98128	 40.721262	
9.01454	 40.715873	
9.04781	 40.726062	
9.08107	 40.694374	
9.11434	 40.728093	
9.1476	 40.719882	
9.18086	 40.736549	
9.21413	 40.754743	
9.24739	 40.738187	
9.28066	 40.769391	
9.31392	 40.777345	
9.34718	 40.777469	
9.38045	 40.746632	
9.41371	 40.755681	
9.44698	 40.810720	
9.48024	 40.830956	
9.5135	 40.861140	
9.54677	 40.853056	
9.58003	 40.841226	
9.6133	 40.829568	
9.64656	 40.826243	
9.67982	 40.798673	
9.71309	 40.827903	
9.74635	 40.848658	
9.77962	 40.877401	
9.81288	 40.887373	
9.84614	 40.874745	
9.87941	 40.872709	
9.91267	 40.854554	
9.94594	 40.830483	
9.9792	 40.845568	
10.0125	 40.880728	
10.0457	 40.918513	
10.079	 40.951793	
10.1123	 40.951638	
10.1455	 40.984336	
10.1788	 40.995793	
10.212	 41.032634	
10.2453	 41.109148	
10.2786	 41.119616	
10.3118	 41.315710	
10.3451	 41.309653	
10.3784	 41.422193	
10.4116	 41.547191	
10.4449	 41.572791	
10.4782	 41.670815	
10.5114	 41.677547	
10.5447	 41.726394	
10.578	 41.811740	
10.6112	 41.838932	
10.6445	 41.891612	
10.6777	 41.882666	
10.711	 41.900977	
10.7443	 41.944232	
10.7775	 41.980168	
10.8108	 41.985876	
10.8441	 41.982252	
10.8773	 41.952210	
10.9106	 41.968329	
10.9439	 41.914174	
10.9771	 41.908263	
11.0104	 41.854433	
11.0436	 41.864992	
11.0769	 41.884888	
11.1102	 41.903774	
11.1434	 41.848924	
11.1767	 41.850709	
11.21	 41.846767	
11.2432	 41.818611	
11.2765	 41.852566	
11.3098	 41.862155	
11.343	 41.841531	
11.3763	 41.843013	
11.4096	 41.821343	
11.4428	 41.819680	
11.4761	 41.822113	
11.5093	 41.803208	
11.5426	 41.783261	
11.5759	 41.747197	
11.6091	 41.708777	
11.6424	 41.711452	
11.6757	 41.756052	
11.7089	 41.748654	
11.7422	 41.755635	
11.7755	 41.709151	
11.8087	 41.706144	
11.842	 41.709871	
11.8752	 41.719526	
11.9085	 41.728890	
11.9418	 41.748954	
